# xmcd CD database file
#
# Track frame offsets:
#	150
#	29006
#	51298
#	83154
#	91909
#	112028
#	135715
#	164478
#
# Disc length: 2735 seconds
#
# Revision: 0
# Processed by: cddbd v1.5.1PL0 Copyright (c) Steve Scherf et al.
# Submitted via: CDex 1.51
#
DISCID=6a0aad08
DTITLE=Jaromir Honzak - Earth Life
DYEAR=2000
DGENRE=Jazz
TTITLE0=Jaromir Honzak - A Familiar Face
TTITLE1=Jaromir Honzak - Old Couple
TTITLE2=Jaromir Honzak - What I've Seen While Taking A Detour
TTITLE3=Jaromir Honzak - Root
TTITLE4=Jaromir Honzak - Her Story
TTITLE5=Jaromir Honzak - Aquarius
TTITLE6=Jaromir Honzak - Monk's Dream
TTITLE7=Jaromir Honzak - Earth Life
EXTD=YEAR: 2000
EXTT0=
EXTT1=
EXTT2=
EXTT3=
EXTT4=
EXTT5=
EXTT6=
EXTT7=
PLAYORDER=
